# xmcd
#
# Track frame offsets:
#	150
#	18476
#	45411
#	64885
#	85977
#	122071
#	135428
#	156675
#	177987
#	194898
#	215371
#	227872
#	249066
#	266340
#	308789
#
# Disc length: 4300 seconds
#
# Revision: 2
# Processed by: cddbd v1.4b42PL1 Copyright (c) Steve Scherf et al.
# Submitted via: EZCDDA 4.3.2
#
DISCID=d310ca0f
DTITLE=Otis Rush - A fool for you
DYEAR=1900
DGENRE=
TTITLE0=Otis Rush - A Fool For You
TTITLE1=Otis Rush - Ain't Enough Comin' In
TTITLE2=Otis Rush - Ain't That Good News
TTITLE3=Otis Rush - Any Place I'm Going
TTITLE4=Otis Rush - As The Years Go Passing By
TTITLE5=Otis Rush - Checking On My Baby
TTITLE6=Otis Rush - Chitlins Con Carne
TTITLE7=Otis Rush - Crosscut Saw
TTITLE8=Otis Rush - Cut You A - Loose
TTITLE9=Otis Rush - Don't Burn Down The Bridge
TTITLE10=Otis Rush - Double Trouble
TTITLE11=Otis Rush - Everyday I Have The Blues
TTITLE12=Otis Rush - Feel so Bad
TTITLE13=Otis Rush - Gambler's Blues
TTITLE14=Otis Rush - Groaning The Blues
EXTD=
EXTT0=
EXTT1=
EXTT2=
EXTT3=
EXTT4=
EXTT5=
EXTT6=
EXTT7=
EXTT8=
EXTT9=
EXTT10=
EXTT11=
EXTT12=
EXTT13=
EXTT14=
PLAYORDER=
